# xmcd
#
# Track frame offsets: 
#        150
#        16925
#        28850
#        42415
#        55900
#        69268
#        85323
#        105218
#        120470
#        134305
#        145055
#        157253
#        169620
#
# Disc length: 2451 seconds
#
# Revision: 16
# Processed by: cddbd v1.5.2PL0 Copyright (c) Steve Scherf et al.
# Submitted via: ExactAudioCopy v1.3
#
DISCID=a609910d
DTITLE=Scott Joplin and George Gershwin - Piano Rags
DYEAR=1987
DGENRE=Blues
TTITLE0=Paul Schoenfield - Scott Joplin - The Entertainer
TTITLE1=Paul Schoenfield - Scott Joplin - The Cascades
TTITLE2=Paul Schoenfield - Scott Joplin - Palm Leaf Rag
TTITLE3=Paul Schoenfield - Scott Joplin - Elite Syncopations
TTITLE4=Paul Schoenfield - Scott Joplin - Maple Leaf Rag
TTITLE5=Paul Schoenfield - Scott Joplin - The Easy Winners
TTITLE6=Paul Schoenfield - Scott Joplin - Solace
TTITLE7=Paul Schoenfield - Scott Joplin - Swipesy
TTITLE8=George Gershwin - George Gershwin - Kicking the Clouds Away
TTITLE9=George Gershwin - George Gershwin - Twee-Oodle-Um Bum-Bo
TTITLE10=George Gershwin - George Gershwin - Drifting Along with the T
TTITLE10=ide
TTITLE11=George Gershwin - George Gershwin - That Certain Feeling
TTITLE12=George Gershwin - George Gershwin - Sweet and Low Down
EXTD=YEAR: 1987
EXTT0=
EXTT1=
EXTT2=
EXTT3=
EXTT4=
EXTT5=
EXTT6=
EXTT7=
EXTT8=
EXTT9=
EXTT10=
EXTT11=
EXTT12=
PLAYORDER=
